<?xml version="1.0" encoding="UTF-8" standalone="no"?>
<svg width="158px" height="34px" viewBox="0 0 158 34" version="1.1" xmlns="http://www.w3.org/2000/svg" xmlns:xlink="http://www.w3.org/1999/xlink" xmlns:sketch="http://www.bohemiancoding.com/sketch/ns">
    <!-- Generator: Sketch 3.2.2 (9983) - http://www.bohemiancoding.com/sketch -->
    <title>a. Logo</title>
    <desc>Created with Sketch.</desc>
    <defs/>
    <g id="C1.0_Navigation" stroke="none" stroke-width="1" fill="none" fill-rule="evenodd" sketch:type="MSPage">
        <g id="C2.1.3_Desktop-AR" sketch:type="MSArtboardGroup" transform="translate(-970.000000, -29.000000)">
            <g id="04_Navigation" sketch:type="MSLayerGroup">
                <g id="a.-Logo" transform="translate(970.000000, 29.000000)" sketch:type="MSShapeGroup">
                    <path d="M3.44869136,8.972 C1.66387654,8.972 0.214567901,10.462 0.214567901,12.296 C0.214567901,14.138 1.66387654,15.628 3.44869136,15.628 C5.25106173,15.628 6.69451852,14.138 6.69451852,12.296 C6.69451852,10.462 5.25106173,8.972 3.44869136,8.972" id="Fill-1" fill="#F4791F"/>
                    <path d="M57.8104444,7.014 L57.7987407,20.718 C57.8884691,23.088 56.1017037,23.714 56.1017037,23.714 C53.0645926,24.728 50.351284,23.81 50.351284,23.81 C49.0911852,23.348 48.2270617,22.248 48.2270617,20.498 L48.2251111,8.814 C48.2251111,8.814 47.3941481,8.966 46.1750123,8.588 C46.1750123,8.588 40.3231605,6.63 34.6741728,6.63 C27.9367407,6.63 23.118716,7.804 21.3768148,10.592 C21.3768148,10.592 22.7598025,10.538 24.8138025,10.752 C26.4191605,10.922 28.0264691,11.226 28.0264691,11.226 C29.4484691,10.678 30.9504444,9.85 34.7443951,9.85 C39.9720494,9.85 42.7224198,11.678 42.7224198,14.164 L42.7282716,21.856 C42.7282716,25.876 46.9962222,27.562 53.1835802,27.562 C57.3169383,27.562 61.5770864,26.002 61.5770864,26.002 C62.4139012,25.684 63.2760741,25.628 63.2760741,25.628 L63.266321,7.014 L57.8104444,7.014 L57.8104444,7.014 Z M26.4659753,13.106 C26.4659753,13.106 23.6707407,12.77 21.3339012,12.596 L21.3339012,14.906 C26.0934074,15.166 34.0909383,16.562 34.0909383,21.094 C34.0909383,23.448 32.7235556,24.494 26.3899012,24.494 C18.4625926,24.494 16.274,23.104 16.274,20.248 L16.2681481,12.246 L9.79990123,12.258 C9.79990123,12.258 10.902,14.122 10.902,17.764 C10.902,22.328 10.9117531,25.816 10.9117531,25.816 C10.9117531,25.816 11.4247654,25.802 11.9865432,25.864 C12.5502716,25.924 19.9431111,27.606 26.4757284,27.606 C34.6800247,27.606 39.8003951,25.546 39.8003951,21.146 C39.8003951,17.69 36.9290864,14.552 26.4659753,13.106 L26.4659753,13.106 Z M19.0029136,30.486 L19.0029136,33.882 L24.3866173,33.882 L24.3866173,32.916 L24.3807654,30.476 L19.0029136,30.486 L19.0029136,30.486 Z M27.2481728,30.486 L27.2481728,33.882 L32.6318765,33.882 L32.6318765,32.916 L32.6279753,30.476 L27.2481728,30.486 L27.2481728,30.486 Z M50.6867901,30.486 L50.6867901,33.882 L56.0724444,33.882 L56.0724444,32.916 L56.0704938,30.476 L50.6867901,30.486 L50.6867901,30.486 Z M75.0812099,7.032 C74.9602716,7.032 69.5180494,7.026 69.5180494,7.026 L69.5180494,11.226 L75.1143704,11.226 C78.0656543,11.226 79.5305679,12.688 79.5305679,15.818 L79.5305679,18.958 C79.5305679,22.498 78.0578519,24.03 74.2326914,24.03 C70.468,24.03 68.0102222,23.366 66.0283951,21.946 C66.0283951,23.132 66.0147407,26.088 66.0147407,26.488 C66.9178765,26.716 70.2085679,27.602 74.4862716,27.536 C79.5091111,27.536 83.199679,25.638 85.0118025,25.638 L85.0118025,14.46 C85.0118025,10.046 82.6203457,7.032 75.0812099,7.032 L75.0812099,7.032 Z" id="Fill-2" fill="#006496"/>
                    <path d="M106.374963,13.106 C106.374963,13.106 105.397704,12.99 104.114198,12.858 L104.114198,12.674 C104.114198,9.95 105.622025,8.804 110.72484,8.804 C116.483062,8.804 119.594296,11.812 119.594296,11.812 L119.594296,8.36 C119.594296,8.36 115.449235,6.568 110.806765,6.568 C105.432815,6.568 101.242889,7.75 101.242889,11.368 C101.242889,11.598 101.238988,14.298 101.238988,14.298 C107.098642,14.298 116.457704,16.564 116.457704,21.096 C116.457704,23.678 113.365975,25.476 105.278716,25.476 C97.460642,25.476 95.0457778,24.038 95.0457778,21.266 L95.0438272,12.264 L90.7290617,12.26 C90.7290617,12.26 91.8292099,14.31 91.8292099,17.766 C91.8292099,19.626 91.8272593,25.802 91.8272593,25.802 C91.8272593,25.802 92.3597778,25.756 93.1653827,25.93 C94.2499259,26.166 99.1674321,27.608 105.364543,27.608 C113.57079,27.608 119.707432,25.546 119.707432,21.146 C119.707432,17.692 116.836123,14.554 106.374963,13.106 L106.374963,13.106 Z M100.441185,31.008 L100.441185,33.882 L105.82879,33.882 L105.82879,32.916 L105.822938,31.004 L100.441185,31.008 L100.441185,31.008 Z M108.686444,31.008 L108.686444,33.882 L114.077951,33.882 L114.077951,32.916 L114.068198,31.004 L108.686444,31.008 L108.686444,31.008 Z M151.303531,2.218 L151.297679,0.326 L145.917877,0.31 L145.917877,3.184 L151.303531,3.18 L151.303531,2.218 L151.303531,2.218 Z M123.263407,17.57 L126.281012,17.57 L126.281012,0.316 L123.263407,0.316 L123.263407,17.57 Z M148.994,17.464 C146.571333,17.464 143.126543,16.87 143.126543,12.896 C143.126543,10.548 144.657778,7.998 149.017407,7.998 C152.988864,7.998 154.853654,9.504 154.853654,12.858 C154.853654,15.432 153.330222,17.464 148.994,17.464 L148.994,17.464 Z M157.795185,11.658 C157.639136,5.694 148.994,6.282 148.994,6.282 C141.683086,6.282 140.110889,9.984 140.110889,12.946 C140.110889,18.046 144.023827,19.39 148.994,19.39 C152.397827,19.39 154.927778,18.346 154.927778,18.346 L154.927778,22.386 C154.927778,24.264 152.138395,24.844 149.036914,25.288 C141.131062,26.02 137.852074,24.542 136.880667,24.002 C136.909926,23.786 136.92358,23.56 136.92358,23.316 L136.92358,0.316 L133.909877,0.316 L133.909877,22.39 C133.909877,24.81 132.739506,25.538 130.543111,25.538 C126.911062,25.538 126.281012,24.81 126.281012,22.362 L126.281012,20.882 L123.263407,20.882 L123.263407,23.28 C123.263407,23.28 122.787457,27.912 130.744025,27.536 C132.589309,27.45 134.296099,27.226 135.448914,26.446 C147.166272,29.508 155.926494,25.758 155.926494,25.758 C156.560444,25.454 157.801037,25.37 157.801037,25.37 L157.795185,11.658 L157.795185,11.658 Z" id="Fill-3" fill="#F4791F"/>
                </g>
            </g>
        </g>
    </g>
</svg>